<svg xmlns="http://www.w3.org/2000/svg" viewBox="0 0 1200 500" font-family="system-ui, -apple-system, sans-serif">
  <!-- Background -->
  <rect width="1200" height="500" fill="#ffffff"/>

  <!-- Title -->
  <text x="600.0" y="30" text-anchor="middle" font-size="20" font-weight="600" fill="#1f2937">
    Bundle Size Comparison: Board vs Home Page
  </text>
  <text x="600.0" y="48" text-anchor="middle" font-size="12" fill="#6b7280">
    Raw (uncompressed) JavaScript bundle sizes
  </text>

  <!-- Chart area -->
  <g transform="translate(120, 100)">

    <line x1="0" y1="320.0" x2="1000" y2="320.0" stroke="#e5e7eb" stroke-width="1" stroke-dasharray="4,4"/>
    <text x="-10" y="320.0" text-anchor="end" dominant-baseline="middle" font-size="11" fill="#6b7280">0 kB</text>
    <line x1="0" y1="266.6666666666667" x2="1000" y2="266.6666666666667" stroke="#e5e7eb" stroke-width="1" stroke-dasharray="4,4"/>
    <text x="-10" y="266.6666666666667" text-anchor="end" dominant-baseline="middle" font-size="11" fill="#6b7280">100 kB</text>
    <line x1="0" y1="213.33333333333334" x2="1000" y2="213.33333333333334" stroke="#e5e7eb" stroke-width="1" stroke-dasharray="4,4"/>
    <text x="-10" y="213.33333333333334" text-anchor="end" dominant-baseline="middle" font-size="11" fill="#6b7280">200 kB</text>
    <line x1="0" y1="160.0" x2="1000" y2="160.0" stroke="#e5e7eb" stroke-width="1" stroke-dasharray="4,4"/>
    <text x="-10" y="160.0" text-anchor="end" dominant-baseline="middle" font-size="11" fill="#6b7280">300 kB</text>
    <line x1="0" y1="106.66666666666669" x2="1000" y2="106.66666666666669" stroke="#e5e7eb" stroke-width="1" stroke-dasharray="4,4"/>
    <text x="-10" y="106.66666666666669" text-anchor="end" dominant-baseline="middle" font-size="11" fill="#6b7280">400 kB</text>
    <line x1="0" y1="53.333333333333314" x2="1000" y2="53.333333333333314" stroke="#e5e7eb" stroke-width="1" stroke-dasharray="4,4"/>
    <text x="-10" y="53.333333333333314" text-anchor="end" dominant-baseline="middle" font-size="11" fill="#6b7280">500 kB</text>

    <rect x="5.0" y="272.6479166666667" width="25.0" height="47.35208333333333" fill="#3b82f6" opacity="0.8" rx="3"/>
    <text x="17.5" y="267.6479166666667" text-anchor="middle" font-size="10" font-weight="600" fill="#1f2937">89</text>
    <rect x="35.0" y="313.41197916666664" width="25.0" height="6.588020833333333" fill="#10b981" opacity="0.8" rx="3"/>
    <text x="47.5" y="308.41197916666664" text-anchor="middle" font-size="10" font-weight="600" fill="#1f2937">12</text>
    <text x="50.0" y="335" text-anchor="end" font-size="11" fill="#374151" transform="rotate(-45, 50.0, 335)">Marko</text>
    <rect x="105.0" y="258.7515625" width="25.0" height="61.2484375" fill="#3b82f6" opacity="0.8" rx="3"/>
    <text x="117.5" y="253.75156249999998" text-anchor="middle" font-size="10" font-weight="600" fill="#1f2937">115</text>
    <rect x="135.0" y="273.8833333333333" width="25.0" height="46.11666666666666" fill="#10b981" opacity="0.8" rx="3"/>
    <text x="147.5" y="268.8833333333333" text-anchor="middle" font-size="10" font-weight="600" fill="#1f2937">86</text>
    <text x="150.0" y="335" text-anchor="end" font-size="11" fill="#374151" transform="rotate(-45, 150.0, 335)">Qwik</text>
    <rect x="205.0" y="253.23333333333335" width="25.0" height="66.76666666666667" fill="#3b82f6" opacity="0.8" rx="3"/>
    <text x="217.5" y="248.23333333333335" text-anchor="middle" font-size="10" font-weight="600" fill="#1f2937">125</text>
    <rect x="235.0" y="264.8364583333333" width="25.0" height="55.16354166666667" fill="#10b981" opacity="0.8" rx="3"/>
    <text x="247.5" y="259.8364583333333" text-anchor="middle" font-size="10" font-weight="600" fill="#1f2937">103</text>
    <text x="250.0" y="335" text-anchor="end" font-size="11" fill="#374151" transform="rotate(-45, 250.0, 335)">SvelteKit</text>
    <rect x="305.0" y="252.08020833333333" width="25.0" height="67.91979166666667" fill="#3b82f6" opacity="0.8" rx="3"/>
    <text x="317.5" y="247.08020833333333" text-anchor="middle" font-size="10" font-weight="600" fill="#1f2937">127</text>
    <rect x="335.0" y="273.6796875" width="25.0" height="46.3203125" fill="#10b981" opacity="0.8" rx="3"/>
    <text x="347.5" y="268.6796875" text-anchor="middle" font-size="10" font-weight="600" fill="#1f2937">87</text>
    <text x="350.0" y="335" text-anchor="end" font-size="11" fill="#374151" transform="rotate(-45, 350.0, 335)">Astro/HTMX</text>
    <rect x="405.0" y="251.41041666666666" width="25.0" height="68.58958333333334" fill="#3b82f6" opacity="0.8" rx="3"/>
    <text x="417.5" y="246.41041666666666" text-anchor="middle" font-size="10" font-weight="600" fill="#1f2937">129</text>
    <rect x="435.0" y="275.2609375" width="25.0" height="44.739062499999996" fill="#10b981" opacity="0.8" rx="3"/>
    <text x="447.5" y="270.2609375" text-anchor="middle" font-size="10" font-weight="600" fill="#1f2937">84</text>
    <text x="450.0" y="335" text-anchor="end" font-size="11" fill="#374151" transform="rotate(-45, 450.0, 335)">SolidStart</text>
    <rect x="505.0" y="222.59218750000002" width="25.0" height="97.40781249999999" fill="#3b82f6" opacity="0.8" rx="3"/>
    <text x="517.5" y="217.59218750000002" text-anchor="middle" font-size="10" font-weight="600" fill="#1f2937">183</text>
    <rect x="535.0" y="240.30260416666667" width="25.0" height="79.69739583333333" fill="#10b981" opacity="0.8" rx="3"/>
    <text x="547.5" y="235.30260416666667" text-anchor="middle" font-size="10" font-weight="600" fill="#1f2937">149</text>
    <text x="550.0" y="335" text-anchor="end" font-size="11" fill="#374151" transform="rotate(-45, 550.0, 335)">TanStack Start + Solid</text>
    <rect x="605.0" y="200.06510416666666" width="25.0" height="119.93489583333334" fill="#3b82f6" opacity="0.8" rx="3"/>
    <text x="617.5" y="195.06510416666666" text-anchor="middle" font-size="10" font-weight="600" fill="#1f2937">225</text>
    <rect x="635.0" y="200.06510416666666" width="25.0" height="119.93489583333334" fill="#10b981" opacity="0.8" rx="3"/>
    <text x="647.5" y="195.06510416666666" text-anchor="middle" font-size="10" font-weight="600" fill="#1f2937">225</text>
    <text x="650.0" y="335" text-anchor="end" font-size="11" fill="#374151" transform="rotate(-45, 650.0, 335)">Nuxt</text>
    <rect x="705.0" y="120.7244791666667" width="25.0" height="199.2755208333333" fill="#3b82f6" opacity="0.8" rx="3"/>
    <text x="717.5" y="115.7244791666667" text-anchor="middle" font-size="10" font-weight="600" fill="#1f2937">374</text>
    <rect x="735.0" y="154.98854166666666" width="25.0" height="165.01145833333334" fill="#10b981" opacity="0.8" rx="3"/>
    <text x="747.5" y="149.98854166666666" text-anchor="middle" font-size="10" font-weight="600" fill="#1f2937">309</text>
    <text x="750.0" y="335" text-anchor="end" font-size="11" fill="#374151" transform="rotate(-45, 750.0, 335)">TanStack Start</text>
    <rect x="805.0" y="119.2828125" width="25.0" height="200.7171875" fill="#3b82f6" opacity="0.8" rx="3"/>
    <text x="817.5" y="114.2828125" text-anchor="middle" font-size="10" font-weight="600" fill="#1f2937">376</text>
    <rect x="835.0" y="119.2828125" width="25.0" height="200.7171875" fill="#10b981" opacity="0.8" rx="3"/>
    <text x="847.5" y="114.2828125" text-anchor="middle" font-size="10" font-weight="600" fill="#1f2937">376</text>
    <text x="850.0" y="335" text-anchor="end" font-size="11" fill="#374151" transform="rotate(-45, 850.0, 335)">Analog</text>
    <rect x="905.0" y="18.717187500000023" width="25.0" height="301.2828125" fill="#3b82f6" opacity="0.8" rx="3"/>
    <text x="917.5" y="13.717187500000023" text-anchor="middle" font-size="10" font-weight="600" fill="#1f2937">565</text>
    <rect x="935.0" y="60.75156249999998" width="25.0" height="259.2484375" fill="#10b981" opacity="0.8" rx="3"/>
    <text x="947.5" y="55.75156249999998" text-anchor="middle" font-size="10" font-weight="600" fill="#1f2937">486</text>
    <text x="950.0" y="335" text-anchor="end" font-size="11" fill="#374151" transform="rotate(-45, 950.0, 335)">Next.js</text>

    <!-- X-axis -->
    <line x1="0" y1="320" x2="1000" y2="320" stroke="#1f2937" stroke-width="2"/>

    <!-- Y-axis -->
    <line x1="0" y1="0" x2="0" y2="320" stroke="#1f2937" stroke-width="2"/>

  </g>

  <!-- Legend -->
  <rect x="500.0" y="65" width="20" height="15" fill="#3b82f6" opacity="0.8" rx="2"/>
  <text x="525.0" y="77" font-size="11" fill="#374151">Board Page</text>
  <rect x="620.0" y="65" width="20" height="15" fill="#10b981" opacity="0.8" rx="2"/>
  <text x="645.0" y="77" font-size="11" fill="#374151">Home Page</text>
  <!-- Footer note -->
  <text x="600.0" y="490" text-anchor="middle" font-size="10" fill="#9ca3af">
    Generated from Lighthouse measurements • 10 frameworks compared
  </text>
</svg>