<svg xmlns="http://www.w3.org/2000/svg" viewBox="0 0 800 500" font-family="system-ui, -apple-system, sans-serif">
  <!-- Background -->
  <rect width="800" height="500" fill="#ffffff"/>

  <!-- Title -->
  <text x="400" y="30" text-anchor="middle" font-size="20" font-weight="600" fill="#1f2937">
    JavaScript Bundle Size Comparison
  </text>
  <text x="400" y="48" text-anchor="middle" font-size="12" fill="#6b7280">
    Board page • Compressed vs Raw • Smaller is better
  </text>

  <!-- Legend -->
  <rect x="600" y="60" width="15" height="15" fill="#3b82f6" rx="2"/>
  <text x="620" y="72" font-size="11" fill="#374151">Compressed</text>
  <rect x="600" y="80" width="15" height="15" fill="#8b5cf6" rx="2"/>
  <text x="620" y="92" font-size="11" fill="#374151">Raw</text>

  <!-- Chart area -->
  <g transform="translate(100, 60)">

    <line x1="0" y1="320" x2="650" y2="320" stroke="#e5e7eb" stroke-width="1" stroke-dasharray="4,4"/>
    <text x="-10" y="320" text-anchor="end" dominant-baseline="middle" font-size="11" fill="#6b7280">0 kB</text>
    <line x1="0" y1="256" x2="650" y2="256" stroke="#e5e7eb" stroke-width="1" stroke-dasharray="4,4"/>
    <text x="-10" y="256" text-anchor="end" dominant-baseline="middle" font-size="11" fill="#6b7280">121 kB</text>
    <line x1="0" y1="192" x2="650" y2="192" stroke="#e5e7eb" stroke-width="1" stroke-dasharray="4,4"/>
    <text x="-10" y="192" text-anchor="end" dominant-baseline="middle" font-size="11" fill="#6b7280">242 kB</text>
    <line x1="0" y1="128" x2="650" y2="128" stroke="#e5e7eb" stroke-width="1" stroke-dasharray="4,4"/>
    <text x="-10" y="128" text-anchor="end" dominant-baseline="middle" font-size="11" fill="#6b7280">363 kB</text>
    <line x1="0" y1="64" x2="650" y2="64" stroke="#e5e7eb" stroke-width="1" stroke-dasharray="4,4"/>
    <text x="-10" y="64" text-anchor="end" dominant-baseline="middle" font-size="11" fill="#6b7280">484 kB</text>
    <line x1="0" y1="0" x2="650" y2="0" stroke="#e5e7eb" stroke-width="1" stroke-dasharray="4,4"/>
    <text x="-10" y="0" text-anchor="end" dominant-baseline="middle" font-size="11" fill="#6b7280">605 kB</text>

    <rect x="6.5" y="304.60461038992486" width="24" height="15.395389610075119" fill="#3b82f6" opacity="0.8" rx="3"/>
    <text x="18.5" y="296.60461038992486" text-anchor="middle" font-size="10" font-weight="600" fill="#1f2937">29.1</text>
    <rect x="34.5" y="273.0322055706322" width="24" height="46.96779442936779" fill="#8b5cf6" opacity="0.8" rx="3"/>
    <text x="46.5" y="265.0322055706322" text-anchor="middle" font-size="10" font-weight="600" fill="#1f2937">88.8</text>
    <text x="32.5" y="335" text-anchor="end" font-size="11" fill="#374151" transform="rotate(-45, 32.5, 335)">kanban-marko</text>
    <rect x="71.5" y="301.3815025822252" width="24" height="18.618497417774815" fill="#3b82f6" opacity="0.8" rx="3"/>
    <text x="83.5" y="293.3815025822252" text-anchor="middle" font-size="10" font-weight="600" fill="#1f2937">35.2</text>
    <rect x="99.5" y="252.42270679192222" width="24" height="67.57729320807779" fill="#8b5cf6" opacity="0.8" rx="3"/>
    <text x="111.5" y="244.42270679192222" text-anchor="middle" font-size="10" font-weight="600" fill="#1f2937">127.7</text>
    <text x="97.5" y="335" text-anchor="end" font-size="11" fill="#374151" transform="rotate(-45, 97.5, 335)">kanban-htmx</text>
    <rect x="136.5" y="294.5297508826706" width="24" height="25.470249117329402" fill="#3b82f6" opacity="0.8" rx="3"/>
    <text x="148.5" y="286.5297508826706" text-anchor="middle" font-size="10" font-weight="600" fill="#1f2937">48.1</text>
    <rect x="164.5" y="252.15872088236387" width="24" height="67.84127911763613" fill="#8b5cf6" opacity="0.8" rx="3"/>
    <text x="176.5" y="244.15872088236387" text-anchor="middle" font-size="10" font-weight="600" fill="#1f2937">128.2</text>
    <text x="162.5" y="335" text-anchor="end" font-size="11" fill="#374151" transform="rotate(-45, 162.5, 335)">kanban-solidstart</text>
    <rect x="201.5" y="290.4030983473436" width="24" height="29.59690165265641" fill="#3b82f6" opacity="0.8" rx="3"/>
    <text x="213.5" y="282.4030983473436" text-anchor="middle" font-size="10" font-weight="600" fill="#1f2937">55.9</text>
    <rect x="229.5" y="255.92943155529224" width="24" height="64.07056844470776" fill="#8b5cf6" opacity="0.8" rx="3"/>
    <text x="241.5" y="247.92943155529224" text-anchor="middle" font-size="10" font-weight="600" fill="#1f2937">121.1</text>
    <text x="227.5" y="335" text-anchor="end" font-size="11" fill="#374151" transform="rotate(-45, 227.5, 335)">kanban-sveltekit</text>
    <rect x="266.5" y="288.57534463302375" width="24" height="31.424655366976253" fill="#3b82f6" opacity="0.8" rx="3"/>
    <text x="278.5" y="280.57534463302375" text-anchor="middle" font-size="10" font-weight="600" fill="#1f2937">59.4</text>
    <rect x="294.5" y="259.2486281676453" width="24" height="60.751371832354735" fill="#8b5cf6" opacity="0.8" rx="3"/>
    <text x="306.5" y="251.24862816764528" text-anchor="middle" font-size="10" font-weight="600" fill="#1f2937">114.8</text>
    <text x="292.5" y="335" text-anchor="end" font-size="11" fill="#374151" transform="rotate(-45, 292.5, 335)">kanban-qwikcity</text>
    <rect x="331.5" y="287.18050714612053" width="24" height="32.81949285387947" fill="#3b82f6" opacity="0.8" rx="3"/>
    <text x="343.5" y="279.18050714612053" text-anchor="middle" font-size="10" font-weight="600" fill="#1f2937">62.0</text>
    <rect x="359.5" y="223.0737762480486" width="24" height="96.92622375195141" fill="#8b5cf6" opacity="0.8" rx="3"/>
    <text x="371.5" y="215.0737762480486" text-anchor="middle" font-size="10" font-weight="600" fill="#1f2937">183.2</text>
    <text x="357.5" y="335" text-anchor="end" font-size="11" fill="#374151" transform="rotate(-45, 357.5, 335)">kanban-tanstack-solid</text>
    <rect x="396.5" y="272.6747138888037" width="24" height="47.32528611119632" fill="#3b82f6" opacity="0.8" rx="3"/>
    <text x="408.5" y="264.6747138888037" text-anchor="middle" font-size="10" font-weight="600" fill="#1f2937">89.5</text>
    <rect x="424.5" y="197.42684771571146" width="24" height="122.57315228428854" fill="#8b5cf6" opacity="0.8" rx="3"/>
    <text x="436.5" y="189.42684771571146" text-anchor="middle" font-size="10" font-weight="600" fill="#1f2937">231.7</text>
    <text x="422.5" y="335" text-anchor="end" font-size="11" fill="#374151" transform="rotate(-45, 422.5, 335)">kanban-nuxt</text>
    <rect x="461.5" y="256.5204293645579" width="24" height="63.47957063544211" fill="#3b82f6" opacity="0.8" rx="3"/>
    <text x="473.5" y="248.5204293645579" text-anchor="middle" font-size="10" font-weight="600" fill="#1f2937">120.0</text>
    <rect x="489.5" y="122.34171258275794" width="24" height="197.65828741724206" fill="#8b5cf6" opacity="0.8" rx="3"/>
    <text x="501.5" y="114.34171258275794" text-anchor="middle" font-size="10" font-weight="600" fill="#1f2937">373.6</text>
    <text x="487.5" y="335" text-anchor="end" font-size="11" fill="#374151" transform="rotate(-45, 487.5, 335)">kanban-tanstack</text>
    <rect x="526.5" y="256.0704651234124" width="24" height="63.92953487658755" fill="#3b82f6" opacity="0.8" rx="3"/>
    <text x="538.5" y="248.07046512341242" text-anchor="middle" font-size="10" font-weight="600" fill="#1f2937">120.8</text>
    <rect x="554.5" y="114.8524684910409" width="24" height="205.1475315089591" fill="#8b5cf6" opacity="0.8" rx="3"/>
    <text x="566.5" y="106.8524684910409" text-anchor="middle" font-size="10" font-weight="600" fill="#1f2937">387.8</text>
    <text x="552.5" y="335" text-anchor="end" font-size="11" fill="#374151" transform="rotate(-45, 552.5, 335)">kanban-analog</text>
    <rect x="591.5" y="228.3297305412906" width="24" height="91.67026945870943" fill="#3b82f6" opacity="0.8" rx="3"/>
    <text x="603.5" y="220.3297305412906" text-anchor="middle" font-size="10" font-weight="600" fill="#1f2937">173.3</text>
    <rect x="619.5" y="29.091143912034852" width="24" height="290.90885608796515" fill="#8b5cf6" opacity="0.8" rx="3"/>
    <text x="631.5" y="21.091143912034852" text-anchor="middle" font-size="10" font-weight="600" fill="#1f2937">549.9</text>
    <text x="617.5" y="335" text-anchor="end" font-size="11" fill="#374151" transform="rotate(-45, 617.5, 335)">kanban-nextjs</text>
  </g>
</svg>
