<svg xmlns="http://www.w3.org/2000/svg" viewBox="0 0 900 500" font-family="system-ui, -apple-system, sans-serif">
  <rect width="900" height="500" fill="#ffffff"/>

  <text x="450.0" y="30" text-anchor="middle" font-size="20" font-weight="600" fill="#1f2937">
    Bundle Size Comparison: Home vs Board Page
  </text>
  <text x="450.0" y="48" text-anchor="middle" font-size="12" fill="#6b7280">
    JavaScript transferred (gzipped, in kB)
  </text>

  <g transform="translate(100, 60)">
    <line x1="0" y1="360.0" x2="680" y2="360.0" stroke="#e5e7eb" stroke-width="1" stroke-dasharray="4,4"/>
    <text x="-10" y="360.0" text-anchor="end" dominant-baseline="middle" font-size="11" fill="#6b7280">0 kB</text>
    <line x1="0" y1="288.0" x2="680" y2="288.0" stroke="#e5e7eb" stroke-width="1" stroke-dasharray="4,4"/>
    <text x="-10" y="288.0" text-anchor="end" dominant-baseline="middle" font-size="11" fill="#6b7280">40 kB</text>
    <line x1="0" y1="216.0" x2="680" y2="216.0" stroke="#e5e7eb" stroke-width="1" stroke-dasharray="4,4"/>
    <text x="-10" y="216.0" text-anchor="end" dominant-baseline="middle" font-size="11" fill="#6b7280">80 kB</text>
    <line x1="0" y1="144.0" x2="680" y2="144.0" stroke="#e5e7eb" stroke-width="1" stroke-dasharray="4,4"/>
    <text x="-10" y="144.0" text-anchor="end" dominant-baseline="middle" font-size="11" fill="#6b7280">120 kB</text>
    <line x1="0" y1="72.0" x2="680" y2="72.0" stroke="#e5e7eb" stroke-width="1" stroke-dasharray="4,4"/>
    <text x="-10" y="72.0" text-anchor="end" dominant-baseline="middle" font-size="11" fill="#6b7280">160 kB</text>
    <line x1="0" y1="0.0" x2="680" y2="0.0" stroke="#e5e7eb" stroke-width="1" stroke-dasharray="4,4"/>
    <text x="-10" y="0.0" text-anchor="end" dominant-baseline="middle" font-size="11" fill="#6b7280">200 kB</text>
    <rect x="9.3" y="347.7" width="26.4" height="12.3" fill="#3b82f6" rx="3"/>
    <text x="22.6" y="342.7" text-anchor="middle" font-size="10" font-weight="600" fill="#1f2937">6.8</text>
    <rect x="39.8" y="308.4" width="26.4" height="51.6" fill="#16a34a" rx="3"/>
    <text x="53.0" y="303.4" text-anchor="middle" font-size="10" font-weight="600" fill="#1f2937">28.7</text>
    <text x="37.8" y="375.0" text-anchor="end" font-size="11" fill="#374151" transform="rotate(-45, 37.8, 375.0)">Marko</text>
    <rect x="84.9" y="321.4" width="26.4" height="38.6" fill="#3b82f6" rx="3"/>
    <text x="98.1" y="316.4" text-anchor="middle" font-size="10" font-weight="600" fill="#1f2937">21.4</text>
    <rect x="115.3" y="298.4" width="26.4" height="61.6" fill="#16a34a" rx="3"/>
    <text x="128.6" y="293.4" text-anchor="middle" font-size="10" font-weight="600" fill="#1f2937">34.2</text>
    <text x="113.3" y="375.0" text-anchor="end" font-size="11" fill="#374151" transform="rotate(-45, 113.3, 375.0)">Astro/HTMX</text>
    <rect x="160.4" y="306.3" width="26.4" height="53.7" fill="#3b82f6" rx="3"/>
    <text x="173.7" y="301.3" text-anchor="middle" font-size="10" font-weight="600" fill="#1f2937">29.8</text>
    <rect x="190.9" y="286.7" width="26.4" height="73.3" fill="#16a34a" rx="3"/>
    <text x="204.1" y="281.7" text-anchor="middle" font-size="10" font-weight="600" fill="#1f2937">40.7</text>
    <text x="188.9" y="375.0" text-anchor="end" font-size="11" fill="#374151" transform="rotate(-45, 188.9, 375.0)">SolidStart</text>
    <rect x="236.0" y="285.2" width="26.4" height="74.8" fill="#3b82f6" rx="3"/>
    <text x="249.2" y="280.2" text-anchor="middle" font-size="10" font-weight="600" fill="#1f2937">41.5</text>
    <rect x="266.4" y="254.4" width="26.4" height="105.6" fill="#16a34a" rx="3"/>
    <text x="279.7" y="249.4" text-anchor="middle" font-size="10" font-weight="600" fill="#1f2937">58.6</text>
    <text x="264.4" y="375.0" text-anchor="end" font-size="11" fill="#374151" transform="rotate(-45, 264.4, 375.0)">SvelteKit</text>
    <rect x="311.6" y="281.1" width="26.4" height="78.9" fill="#3b82f6" rx="3"/>
    <text x="324.8" y="276.1" text-anchor="middle" font-size="10" font-weight="600" fill="#1f2937">43.9</text>
    <rect x="342.0" y="253.1" width="26.4" height="106.9" fill="#16a34a" rx="3"/>
    <text x="355.2" y="248.1" text-anchor="middle" font-size="10" font-weight="600" fill="#1f2937">59.4</text>
    <text x="340.0" y="375.0" text-anchor="end" font-size="11" fill="#374151" transform="rotate(-45, 340.0, 375.0)">Qwik</text>
    <rect x="387.1" y="183.5" width="26.4" height="176.5" fill="#3b82f6" rx="3"/>
    <text x="400.3" y="178.5" text-anchor="middle" font-size="10" font-weight="600" fill="#1f2937">98.0</text>
    <rect x="417.6" y="147.7" width="26.4" height="212.3" fill="#16a34a" rx="3"/>
    <text x="430.8" y="142.7" text-anchor="middle" font-size="10" font-weight="600" fill="#1f2937">117.9</text>
    <text x="415.6" y="375.0" text-anchor="end" font-size="11" fill="#374151" transform="rotate(-45, 415.6, 375.0)">TanStack Start</text>
    <rect x="462.7" y="135.7" width="26.4" height="224.3" fill="#3b82f6" rx="3"/>
    <text x="475.9" y="130.7" text-anchor="middle" font-size="10" font-weight="600" fill="#1f2937">124.6</text>
    <rect x="493.1" y="113.9" width="26.4" height="246.1" fill="#16a34a" rx="3"/>
    <text x="506.3" y="108.9" text-anchor="middle" font-size="10" font-weight="600" fill="#1f2937">136.7</text>
    <text x="491.1" y="375.0" text-anchor="end" font-size="11" fill="#374151" transform="rotate(-45, 491.1, 375.0)">Analog</text>
    <rect x="538.2" y="125.2" width="26.4" height="234.8" fill="#3b82f6" rx="3"/>
    <text x="551.4" y="120.2" text-anchor="middle" font-size="10" font-weight="600" fill="#1f2937">130.5</text>
    <rect x="568.7" y="124.4" width="26.4" height="235.6" fill="#16a34a" rx="3"/>
    <text x="581.9" y="119.4" text-anchor="middle" font-size="10" font-weight="600" fill="#1f2937">130.9</text>
    <text x="566.7" y="375.0" text-anchor="end" font-size="11" fill="#374151" transform="rotate(-45, 566.7, 375.0)">Nuxt</text>
    <rect x="613.8" y="118.3" width="26.4" height="241.7" fill="#3b82f6" rx="3"/>
    <text x="627.0" y="113.3" text-anchor="middle" font-size="10" font-weight="600" fill="#1f2937">134.3</text>
    <rect x="644.2" y="73.9" width="26.4" height="286.1" fill="#16a34a" rx="3"/>
    <text x="657.4" y="68.9" text-anchor="middle" font-size="10" font-weight="600" fill="#1f2937">158.9</text>
    <text x="642.2" y="375.0" text-anchor="end" font-size="11" fill="#374151" transform="rotate(-45, 642.2, 375.0)">Next.js</text>
    <line x1="0" y1="360" x2="680" y2="360" stroke="#1f2937" stroke-width="2"/>
    <line x1="0" y1="0" x2="0" y2="360" stroke="#1f2937" stroke-width="2"/>
  </g>

  <g transform="translate(790, 80)">
    <rect x="0" y="0" width="15" height="15" fill="#3b82f6" rx="2"/>
    <text x="20" y="12" font-size="12" fill="#374151">Home Page</text>
    <rect x="0" y="25" width="15" height="15" fill="#16a34a" rx="2"/>
    <text x="20" y="37" font-size="12" fill="#374151">Board Page</text>
  </g>

</svg>