<svg xmlns="http://www.w3.org/2000/svg" viewBox="0 0 1200 500" font-family="system-ui, -apple-system, sans-serif">
  <!-- Background -->
  <rect width="1200" height="500" fill="#ffffff"/>

  <!-- Title -->
  <text x="600.0" y="30" text-anchor="middle" font-size="20" font-weight="600" fill="#1f2937">
    Bundle Size Comparison: Board vs Home Page
  </text>
  <text x="600.0" y="48" text-anchor="middle" font-size="12" fill="#6b7280">
    Raw (uncompressed) JavaScript bundle sizes
  </text>

  <!-- Chart area -->
  <g transform="translate(120, 100)">

    <line x1="0" y1="320.0" x2="1000" y2="320.0" stroke="#e5e7eb" stroke-width="1" stroke-dasharray="4,4"/>
    <text x="-10" y="320.0" text-anchor="end" dominant-baseline="middle" font-size="11" fill="#6b7280">0 kB</text>
    <line x1="0" y1="256.0" x2="1000" y2="256.0" stroke="#e5e7eb" stroke-width="1" stroke-dasharray="4,4"/>
    <text x="-10" y="256.0" text-anchor="end" dominant-baseline="middle" font-size="11" fill="#6b7280">150 kB</text>
    <line x1="0" y1="192.0" x2="1000" y2="192.0" stroke="#e5e7eb" stroke-width="1" stroke-dasharray="4,4"/>
    <text x="-10" y="192.0" text-anchor="end" dominant-baseline="middle" font-size="11" fill="#6b7280">300 kB</text>
    <line x1="0" y1="128.0" x2="1000" y2="128.0" stroke="#e5e7eb" stroke-width="1" stroke-dasharray="4,4"/>
    <text x="-10" y="128.0" text-anchor="end" dominant-baseline="middle" font-size="11" fill="#6b7280">450 kB</text>
    <line x1="0" y1="64.0" x2="1000" y2="64.0" stroke="#e5e7eb" stroke-width="1" stroke-dasharray="4,4"/>
    <text x="-10" y="64.0" text-anchor="end" dominant-baseline="middle" font-size="11" fill="#6b7280">600 kB</text>
    <line x1="0" y1="0.0" x2="1000" y2="0.0" stroke="#e5e7eb" stroke-width="1" stroke-dasharray="4,4"/>
    <text x="-10" y="0.0" text-anchor="end" dominant-baseline="middle" font-size="11" fill="#6b7280">750 kB</text>

    <rect x="5.555555555555556" y="282.2325" width="27.77777777777778" height="37.7675" fill="#3b82f6" opacity="0.8" rx="3"/>
    <text x="19.444444444444446" y="277.2325" text-anchor="middle" font-size="10" font-weight="600" fill="#1f2937">89</text>
    <rect x="38.88888888888889" y="314.7266666666667" width="27.77777777777778" height="5.273333333333333" fill="#10b981" opacity="0.8" rx="3"/>
    <text x="52.777777777777786" y="309.7266666666667" text-anchor="middle" font-size="10" font-weight="600" fill="#1f2937">12</text>
    <text x="55.55555555555556" y="335" text-anchor="end" font-size="11" fill="#374151" transform="rotate(-45, 55.55555555555556, 335)">Marko</text>
    <rect x="116.66666666666667" y="270.64708333333334" width="27.77777777777778" height="49.35291666666667" fill="#3b82f6" opacity="0.8" rx="3"/>
    <text x="130.55555555555557" y="265.64708333333334" text-anchor="middle" font-size="10" font-weight="600" fill="#1f2937">116</text>
    <rect x="150.0" y="282.8179166666667" width="27.77777777777778" height="37.18208333333333" fill="#10b981" opacity="0.8" rx="3"/>
    <text x="163.88888888888889" y="277.8179166666667" text-anchor="middle" font-size="10" font-weight="600" fill="#1f2937">87</text>
    <text x="166.66666666666669" y="335" text-anchor="end" font-size="11" fill="#374151" transform="rotate(-45, 166.66666666666669, 335)">Qwik</text>
    <rect x="227.77777777777777" y="266.1225" width="27.77777777777778" height="53.8775" fill="#3b82f6" opacity="0.8" rx="3"/>
    <text x="241.66666666666666" y="261.1225" text-anchor="middle" font-size="10" font-weight="600" fill="#1f2937">126</text>
    <rect x="261.1111111111111" y="284.18041666666664" width="27.77777777777778" height="35.819583333333334" fill="#10b981" opacity="0.8" rx="3"/>
    <text x="275.0" y="279.18041666666664" text-anchor="middle" font-size="10" font-weight="600" fill="#1f2937">84</text>
    <text x="277.77777777777777" y="335" text-anchor="end" font-size="11" fill="#374151" transform="rotate(-45, 277.77777777777777, 335)">SolidStart</text>
    <rect x="338.8888888888889" y="265.70166666666665" width="27.77777777777778" height="54.29833333333334" fill="#3b82f6" opacity="0.8" rx="3"/>
    <text x="352.7777777777778" y="260.70166666666665" text-anchor="middle" font-size="10" font-weight="600" fill="#1f2937">127</text>
    <rect x="372.22222222222223" y="282.98875" width="27.77777777777778" height="37.011250000000004" fill="#10b981" opacity="0.8" rx="3"/>
    <text x="386.11111111111114" y="277.98875" text-anchor="middle" font-size="10" font-weight="600" fill="#1f2937">87</text>
    <text x="388.8888888888889" y="335" text-anchor="end" font-size="11" fill="#374151" transform="rotate(-45, 388.8888888888889, 335)">Astro/HTMX</text>
    <rect x="450.0" y="257.6479166666667" width="27.77777777777778" height="62.35208333333333" fill="#3b82f6" opacity="0.8" rx="3"/>
    <text x="463.8888888888889" y="252.64791666666667" text-anchor="middle" font-size="10" font-weight="600" fill="#1f2937">146</text>
    <rect x="483.3333333333333" y="274.94083333333333" width="27.77777777777778" height="45.05916666666667" fill="#10b981" opacity="0.8" rx="3"/>
    <text x="497.22222222222223" y="269.94083333333333" text-anchor="middle" font-size="10" font-weight="600" fill="#1f2937">106</text>
    <text x="500.0" y="335" text-anchor="end" font-size="11" fill="#374151" transform="rotate(-45, 500.0, 335)">SvelteKit</text>
    <rect x="561.1111111111111" y="160.99041666666668" width="27.77777777777778" height="159.00958333333332" fill="#3b82f6" opacity="0.8" rx="3"/>
    <text x="575.0" y="155.99041666666668" text-anchor="middle" font-size="10" font-weight="600" fill="#1f2937">373</text>
    <rect x="594.4444444444445" y="188.49916666666667" width="27.77777777777778" height="131.50083333333333" fill="#10b981" opacity="0.8" rx="3"/>
    <text x="608.3333333333334" y="183.49916666666667" text-anchor="middle" font-size="10" font-weight="600" fill="#1f2937">308</text>
    <text x="611.1111111111111" y="335" text-anchor="end" font-size="11" fill="#374151" transform="rotate(-45, 611.1111111111111, 335)">TanStack Start</text>
    <rect x="672.2222222222223" y="145.33" width="27.77777777777778" height="174.67" fill="#3b82f6" opacity="0.8" rx="3"/>
    <text x="686.1111111111112" y="140.33" text-anchor="middle" font-size="10" font-weight="600" fill="#1f2937">409</text>
    <rect x="705.5555555555557" y="146.51958333333334" width="27.77777777777778" height="173.48041666666666" fill="#10b981" opacity="0.8" rx="3"/>
    <text x="719.4444444444446" y="141.51958333333334" text-anchor="middle" font-size="10" font-weight="600" fill="#1f2937">407</text>
    <text x="722.2222222222223" y="335" text-anchor="end" font-size="11" fill="#374151" transform="rotate(-45, 722.2222222222223, 335)">Nuxt</text>
    <rect x="783.3333333333334" y="96.16708333333332" width="27.77777777777778" height="223.83291666666668" fill="#3b82f6" opacity="0.8" rx="3"/>
    <text x="797.2222222222223" y="91.16708333333332" text-anchor="middle" font-size="10" font-weight="600" fill="#1f2937">525</text>
    <rect x="816.6666666666667" y="129.00041666666667" width="27.77777777777778" height="190.99958333333333" fill="#10b981" opacity="0.8" rx="3"/>
    <text x="830.5555555555557" y="124.00041666666667" text-anchor="middle" font-size="10" font-weight="600" fill="#1f2937">448</text>
    <text x="833.3333333333334" y="335" text-anchor="end" font-size="11" fill="#374151" transform="rotate(-45, 833.3333333333334, 335)">Next.js</text>
    <rect x="894.4444444444445" y="20.508333333333326" width="27.77777777777778" height="299.4916666666667" fill="#3b82f6" opacity="0.8" rx="3"/>
    <text x="908.3333333333334" y="15.508333333333326" text-anchor="middle" font-size="10" font-weight="600" fill="#1f2937">702</text>
    <rect x="927.7777777777778" y="121.3175" width="27.77777777777778" height="198.6825" fill="#10b981" opacity="0.8" rx="3"/>
    <text x="941.6666666666667" y="116.3175" text-anchor="middle" font-size="10" font-weight="600" fill="#1f2937">466</text>
    <text x="944.4444444444445" y="335" text-anchor="end" font-size="11" fill="#374151" transform="rotate(-45, 944.4444444444445, 335)">Analog</text>

    <!-- X-axis -->
    <line x1="0" y1="320" x2="1000" y2="320" stroke="#1f2937" stroke-width="2"/>

    <!-- Y-axis -->
    <line x1="0" y1="0" x2="0" y2="320" stroke="#1f2937" stroke-width="2"/>

  </g>

  <!-- Legend -->
  <rect x="500.0" y="65" width="20" height="15" fill="#3b82f6" opacity="0.8" rx="2"/>
  <text x="525.0" y="77" font-size="11" fill="#374151">Board Page</text>
  <rect x="620.0" y="65" width="20" height="15" fill="#10b981" opacity="0.8" rx="2"/>
  <text x="645.0" y="77" font-size="11" fill="#374151">Home Page</text>
  <!-- Footer note -->
  <text x="600.0" y="490" text-anchor="middle" font-size="10" fill="#9ca3af">
    Generated from Lighthouse measurements • 9 frameworks compared
  </text>
</svg>