<svg xmlns="http://www.w3.org/2000/svg" viewBox="0 0 800 500" font-family="system-ui, -apple-system, sans-serif">
  <!-- Background -->
  <rect width="800" height="500" fill="#ffffff"/>

  <!-- Title -->
  <text x="400.0" y="30" text-anchor="middle" font-size="20" font-weight="600" fill="#1f2937">
    JavaScript Bundle Size (Raw)
  </text>
  <text x="400.0" y="48" text-anchor="middle" font-size="12" fill="#6b7280">
    Board page • Smaller is better
  </text>

  <!-- Chart area -->
  <g transform="translate(100, 60)">

    <line x1="0" y1="360.0" x2="650" y2="360.0" stroke="#e5e7eb" stroke-width="1" stroke-dasharray="4,4"/>
    <text x="-10" y="360.0" text-anchor="end" dominant-baseline="middle" font-size="11" fill="#6b7280">0 kB</text>
    <line x1="0" y1="300.0" x2="650" y2="300.0" stroke="#e5e7eb" stroke-width="1" stroke-dasharray="4,4"/>
    <text x="-10" y="300.0" text-anchor="end" dominant-baseline="middle" font-size="11" fill="#6b7280">100 kB</text>
    <line x1="0" y1="240.0" x2="650" y2="240.0" stroke="#e5e7eb" stroke-width="1" stroke-dasharray="4,4"/>
    <text x="-10" y="240.0" text-anchor="end" dominant-baseline="middle" font-size="11" fill="#6b7280">200 kB</text>
    <line x1="0" y1="180.0" x2="650" y2="180.0" stroke="#e5e7eb" stroke-width="1" stroke-dasharray="4,4"/>
    <text x="-10" y="180.0" text-anchor="end" dominant-baseline="middle" font-size="11" fill="#6b7280">300 kB</text>
    <line x1="0" y1="120.0" x2="650" y2="120.0" stroke="#e5e7eb" stroke-width="1" stroke-dasharray="4,4"/>
    <text x="-10" y="120.0" text-anchor="end" dominant-baseline="middle" font-size="11" fill="#6b7280">400 kB</text>
    <line x1="0" y1="60.0" x2="650" y2="60.0" stroke="#e5e7eb" stroke-width="1" stroke-dasharray="4,4"/>
    <text x="-10" y="60.0" text-anchor="end" dominant-baseline="middle" font-size="11" fill="#6b7280">500 kB</text>

    <defs>
      <linearGradient id="grad0" x1="0%" y1="0%" x2="0%" y2="100%">
        <stop offset="0%" style="stop-color:#3b82f6;stop-opacity:0.9" />
        <stop offset="100%" style="stop-color:#3b82f6;stop-opacity:0.7" />
      </linearGradient>
    </defs>
    <rect x="6.5" y="306.72890625" width="52.0" height="53.27109375" fill="url(#grad0)" rx="4"/>
    <text x="32.5" y="298.72890625" text-anchor="middle" font-size="12" font-weight="600" fill="#1f2937">88.8</text>
    <text x="32.5" y="375" text-anchor="end" font-size="11" fill="#374151" transform="rotate(-45, 32.5, 375)">Marko</text>
    <defs>
      <linearGradient id="grad1" x1="0%" y1="0%" x2="0%" y2="100%">
        <stop offset="0%" style="stop-color:#8b5cf6;stop-opacity:0.9" />
        <stop offset="100%" style="stop-color:#8b5cf6;stop-opacity:0.7" />
      </linearGradient>
    </defs>
    <rect x="71.5" y="291.0955078125" width="52.0" height="68.9044921875" fill="url(#grad1)" rx="4"/>
    <text x="97.5" y="283.0955078125" text-anchor="middle" font-size="12" font-weight="600" fill="#1f2937">114.8</text>
    <text x="97.5" y="375" text-anchor="end" font-size="11" fill="#374151" transform="rotate(-45, 97.5, 375)">Qwik</text>
    <defs>
      <linearGradient id="grad2" x1="0%" y1="0%" x2="0%" y2="100%">
        <stop offset="0%" style="stop-color:#ec4899;stop-opacity:0.9" />
        <stop offset="100%" style="stop-color:#ec4899;stop-opacity:0.7" />
      </linearGradient>
    </defs>
    <rect x="136.5" y="284.8875" width="52.0" height="75.1125" fill="url(#grad2)" rx="4"/>
    <text x="162.5" y="276.8875" text-anchor="middle" font-size="12" font-weight="600" fill="#1f2937">125.2</text>
    <text x="162.5" y="375" text-anchor="end" font-size="11" fill="#374151" transform="rotate(-45, 162.5, 375)">SvelteKit</text>
    <defs>
      <linearGradient id="grad3" x1="0%" y1="0%" x2="0%" y2="100%">
        <stop offset="0%" style="stop-color:#f59e0b;stop-opacity:0.9" />
        <stop offset="100%" style="stop-color:#f59e0b;stop-opacity:0.7" />
      </linearGradient>
    </defs>
    <rect x="201.5" y="283.590234375" width="52.0" height="76.409765625" fill="url(#grad3)" rx="4"/>
    <text x="227.5" y="275.590234375" text-anchor="middle" font-size="12" font-weight="600" fill="#1f2937">127.3</text>
    <text x="227.5" y="375" text-anchor="end" font-size="11" fill="#374151" transform="rotate(-45, 227.5, 375)">Astro</text>
    <defs>
      <linearGradient id="grad4" x1="0%" y1="0%" x2="0%" y2="100%">
        <stop offset="0%" style="stop-color:#10b981;stop-opacity:0.9" />
        <stop offset="100%" style="stop-color:#10b981;stop-opacity:0.7" />
      </linearGradient>
    </defs>
    <rect x="266.5" y="282.83671875" width="52.0" height="77.16328125000001" fill="url(#grad4)" rx="4"/>
    <text x="292.5" y="274.83671875" text-anchor="middle" font-size="12" font-weight="600" fill="#1f2937">128.6</text>
    <text x="292.5" y="375" text-anchor="end" font-size="11" fill="#374151" transform="rotate(-45, 292.5, 375)">SolidStart</text>
    <defs>
      <linearGradient id="grad5" x1="0%" y1="0%" x2="0%" y2="100%">
        <stop offset="0%" style="stop-color:#06b6d4;stop-opacity:0.9" />
        <stop offset="100%" style="stop-color:#06b6d4;stop-opacity:0.7" />
      </linearGradient>
    </defs>
    <rect x="331.5" y="250.4162109375" width="52.0" height="109.58378906249999" fill="url(#grad5)" rx="4"/>
    <text x="357.5" y="242.4162109375" text-anchor="middle" font-size="12" font-weight="600" fill="#1f2937">182.6</text>
    <text x="357.5" y="375" text-anchor="end" font-size="11" fill="#374151" transform="rotate(-45, 357.5, 375)">TanStack Start + Solid</text>
    <defs>
      <linearGradient id="grad6" x1="0%" y1="0%" x2="0%" y2="100%">
        <stop offset="0%" style="stop-color:#6366f1;stop-opacity:0.9" />
        <stop offset="100%" style="stop-color:#6366f1;stop-opacity:0.7" />
      </linearGradient>
    </defs>
    <rect x="396.5" y="225.0732421875" width="52.0" height="134.9267578125" fill="url(#grad6)" rx="4"/>
    <text x="422.5" y="217.0732421875" text-anchor="middle" font-size="12" font-weight="600" fill="#1f2937">224.9</text>
    <text x="422.5" y="375" text-anchor="end" font-size="11" fill="#374151" transform="rotate(-45, 422.5, 375)">Nuxt</text>
    <defs>
      <linearGradient id="grad7" x1="0%" y1="0%" x2="0%" y2="100%">
        <stop offset="0%" style="stop-color:#84cc16;stop-opacity:0.9" />
        <stop offset="100%" style="stop-color:#84cc16;stop-opacity:0.7" />
      </linearGradient>
    </defs>
    <rect x="461.5" y="135.8150390625" width="52.0" height="224.1849609375" fill="url(#grad7)" rx="4"/>
    <text x="487.5" y="127.8150390625" text-anchor="middle" font-size="12" font-weight="600" fill="#1f2937">373.6</text>
    <text x="487.5" y="375" text-anchor="end" font-size="11" fill="#374151" transform="rotate(-45, 487.5, 375)">TanStack Start</text>
    <defs>
      <linearGradient id="grad8" x1="0%" y1="0%" x2="0%" y2="100%">
        <stop offset="0%" style="stop-color:#f97316;stop-opacity:0.9" />
        <stop offset="100%" style="stop-color:#f97316;stop-opacity:0.7" />
      </linearGradient>
    </defs>
    <rect x="526.5" y="134.19316406250002" width="52.0" height="225.80683593749998" fill="url(#grad8)" rx="4"/>
    <text x="552.5" y="126.19316406250002" text-anchor="middle" font-size="12" font-weight="600" fill="#1f2937">376.3</text>
    <text x="552.5" y="375" text-anchor="end" font-size="11" fill="#374151" transform="rotate(-45, 552.5, 375)">Analog</text>
    <defs>
      <linearGradient id="grad9" x1="0%" y1="0%" x2="0%" y2="100%">
        <stop offset="0%" style="stop-color:#14b8a6;stop-opacity:0.9" />
        <stop offset="100%" style="stop-color:#14b8a6;stop-opacity:0.7" />
      </linearGradient>
    </defs>
    <rect x="591.5" y="21.05683593750001" width="52.0" height="338.9431640625" fill="url(#grad9)" rx="4"/>
    <text x="617.5" y="13.056835937500011" text-anchor="middle" font-size="12" font-weight="600" fill="#1f2937">564.9</text>
    <text x="617.5" y="375" text-anchor="end" font-size="11" fill="#374151" transform="rotate(-45, 617.5, 375)">Next.js</text>

    <!-- X-axis -->
    <line x1="0" y1="360" x2="650" y2="360" stroke="#1f2937" stroke-width="2"/>

    <!-- Y-axis -->
    <line x1="0" y1="0" x2="0" y2="360" stroke="#1f2937" stroke-width="2"/>

  </g>

  <!-- Footer note -->
  <text x="400.0" y="490" text-anchor="middle" font-size="10" fill="#9ca3af">
    Generated from Lighthouse measurements • 10 frameworks compared
  </text>
</svg>